<?xml version="1.0" standalone="no"?>
<!DOCTYPE svg PUBLIC "-//W3C//DTD SVG 20010904//EN"
 "http://www.w3.org/TR/2001/REC-SVG-20010904/DTD/svg10.dtd">
<svg  enable-background="new 0 0 512.003 512.003" height="52" viewBox="0 0 512.003 512.003" width="512" xmlns="http://www.w3.org/2000/svg"><g><g><path d="m195.194 291.482-46.159 46.159c7.222 9.435 15.667 17.881 25.103 25.102l46.159-46.159c-10.374-6.068-19.035-14.729-25.103-25.102z" fill="#ce775f"/><path d="m174.335 312.34-25.301 25.301c7.222 9.435 15.667 17.881 25.103 25.102l19.768-19.768c-7.834-9.222-14.441-19.516-19.57-30.635z" fill="#c0694e"/><path d="m185.663 256.277c0-6.134.797-12.081 2.283-17.75h-65.272c-.769 5.808-1.172 11.732-1.172 17.75s.403 11.942 1.172 17.75h65.272c-1.486-5.669-2.283-11.616-2.283-17.75z" fill="#ce775f"/><path d="m162.07 256.277c0-6.018.403-11.942 1.172-17.75h-40.569c-.769 5.808-1.172 11.732-1.172 17.75s.403 11.942 1.172 17.75h40.569c-.769-5.808-1.172-11.732-1.172-17.75z" fill="#c0694e"/><path d="m195.194 221.072c6.068-10.372 14.73-19.034 25.102-25.102l-46.159-46.159c-9.435 7.221-17.881 15.667-25.102 25.102z" fill="#ce775f"/><path d="m193.905 169.578-19.768-19.768c-9.435 7.221-17.881 15.667-25.102 25.102l25.301 25.301c5.128-11.118 11.735-21.412 19.569-30.635z" fill="#c0694e"/><path d="m273.251 389.105v-65.272c-5.668 1.485-11.615 2.283-17.75 2.283s-12.082-.797-17.75-2.283v65.272c5.808.769 11.732 1.172 17.75 1.172s11.942-.403 17.75-1.172z" fill="#ce775f"/><path d="m237.751 376.952v12.153c5.808.769 11.732 1.172 17.75 1.172s11.942-.403 17.75-1.172v-.771c-12.511-2.147-24.431-6.023-35.5-11.382z" fill="#c0694e"/><path d="m255.501 122.277c-6.018 0-11.942.403-17.75 1.172v65.272c5.668-1.485 11.615-2.283 17.75-2.283s12.082.797 17.75 2.283v-65.272c-5.808-.769-11.732-1.172-17.75-1.172z" fill="#ce775f"/><path d="m273.251 124.221v-.771c-5.808-.769-11.732-1.172-17.75-1.172s-11.942.403-17.75 1.172v12.153c11.069-5.36 22.989-9.236 35.5-11.382z" fill="#c0694e"/><g fill="#ce775f"><path d="m387.822 149.058 47.462-47.462c4.667-4.667 4.667-12.304 0-16.971l-8.132-8.132c-4.667-4.667-12.303-4.667-16.97 0l-47.462 47.462c9.212 7.475 17.628 15.891 25.102 25.103z"/><path d="m315.809 291.482c-6.068 10.372-14.73 19.034-25.102 25.102l46.159 46.159c9.435-7.221 17.881-15.667 25.102-25.102z"/><path d="m325.34 256.277c0 6.134-.797 12.081-2.283 17.75h65.272c.769-5.808 1.172-11.732 1.172-17.75s-.404-11.942-1.172-17.75h-65.272c1.485 5.668 2.283 11.616 2.283 17.75z"/><path d="m255.501 426.59c-5.995 0-11.916-.314-17.75-.918v67.106c0 6.6 5.4 12 12 12h11.5c6.6 0 12-5.4 12-12v-67.106c-5.835.605-11.755.918-17.75.918z"/><path d="m336.865 149.81-46.159 46.159c10.372 6.068 19.034 14.73 25.102 25.102l46.159-46.159c-7.221-9.434-15.667-17.88-25.102-25.102z"/><path d="m123.18 363.496-47.462 47.462c-4.667 4.667-4.667 12.304 0 16.971l8.132 8.132c4.667 4.667 12.303 4.667 16.97 0l47.462-47.462c-9.212-7.475-17.628-15.891-25.102-25.103z"/><path d="m492.003 238.527h-67.106c.604 5.835.918 11.756.918 17.75s-.313 11.915-.918 17.75h67.106c6.6 0 12-5.4 12-12v-11.5c0-6.6-5.4-12-12-12z"/><path d="m387.822 363.496c-7.474 9.213-15.89 17.628-25.102 25.102l47.462 47.462c4.667 4.667 12.304 4.667 16.97 0l8.132-8.132c4.667-4.667 4.667-12.304 0-16.971z"/><path d="m85.188 256.277c0-5.994.314-11.915.918-17.75h-67.106c-6.6 0-12 5.4-12 12v11.5c0 6.6 5.4 12 12 12h67.106c-.605-5.835-.918-11.756-.918-17.75z"/><path d="m255.501 85.964c5.994 0 11.915.314 17.75.918v-67.107c0-6.6-5.4-12-12-12h-11.5c-6.6 0-12 5.4-12 12v67.106c5.835-.604 11.756-.917 17.75-.917z"/><path d="m123.18 149.058c7.474-9.213 15.89-17.628 25.102-25.102l-47.462-47.462c-4.667-4.667-12.304-4.667-16.97 0l-8.132 8.132c-4.667 4.667-4.667 12.304 0 16.971z"/></g><ellipse cx="255.501" cy="256.277" fill="#477b9e" rx="70.338" ry="70.339" transform="matrix(.16 -.987 .987 .16 -38.393 467.429)"/><path d="m217.709 256.277c0-33.183 23.104-61.053 54.065-68.418-5.227-1.243-10.671-1.921-16.273-1.921-38.785 0-70.338 31.554-70.338 70.339 0 38.784 31.554 70.338 70.338 70.338 5.602 0 11.046-.678 16.273-1.921-30.961-7.364-54.065-35.234-54.065-68.417z" fill="#3f6d8e"/><circle cx="255.501" cy="256.277" fill="#3f6d8e" r="38.792"/><path d="m249.255 256.277c0-15.611 9.226-29.06 22.519-35.213-4.95-2.292-10.46-3.579-16.273-3.579-21.424 0-38.792 17.368-38.792 38.792s17.368 38.792 38.792 38.792c5.813 0 11.323-1.287 16.273-3.579-13.293-6.153-22.519-19.602-22.519-35.213z" fill="#365e7d"/><path d="m255.501 85.464c-94.187 0-170.813 76.626-170.813 170.813s76.626 170.812 170.813 170.812 170.813-76.626 170.813-170.812c0-94.187-76.626-170.813-170.813-170.813zm0 304.313c-73.612 0-133.5-59.888-133.5-133.5s59.888-133.5 133.5-133.5 133.5 59.888 133.5 133.5-59.888 133.5-133.5 133.5z" fill="#e58e7a"/><g><g><path d="m105.021 256.277c0-90.773 71.175-165.224 160.647-170.502-3.365-.199-6.753-.311-10.167-.311-94.187 0-170.813 76.626-170.813 170.813s76.626 170.812 170.813 170.812c3.414 0 6.802-.113 10.167-.311-89.472-5.278-160.647-79.728-160.647-170.501z" fill="#c0694e"/></g></g></g><g><path d="m492.503 230.752h-60.495c-1.057-7.417-2.563-14.76-4.548-21.979-1.098-3.993-5.217-6.347-9.219-5.244-3.994 1.098-6.342 5.225-5.244 9.219 30.425 110.693-60.27 216.842-173.774 205.207-81.913-8.425-146.035-77.837-146.035-161.953 0-89.87 73.34-163.381 163.887-162.795 62.382.403 116.64 35.747 143.734 88.303 1.897 3.682 6.423 5.126 10.103 3.23 3.682-1.898 5.128-6.421 3.229-10.103-4.614-8.95-9.917-17.38-15.806-25.261l42.752-42.752c7.603-7.603 7.603-19.974-.001-27.577l-8.131-8.131c-7.601-7.604-19.975-7.603-27.577 0l-42.708 42.708c-23.629-17.725-51.535-29.414-81.418-33.651v-60.473c0-10.752-8.748-19.5-19.5-19.5h-11.5c-10.752 0-19.5 8.748-19.5 19.5v60.489c-30.192 4.311-57.966 16.225-81.304 33.749l-42.823-42.823c-7.604-7.604-19.974-7.603-27.577 0l-8.133 8.131c-7.603 7.603-7.603 19.974 0 27.577l42.824 42.824c-17.524 23.338-29.438 51.112-33.75 81.304h-60.489c-10.752 0-19.5 8.748-19.5 19.5v11.5c0 10.752 8.748 19.5 19.5 19.5h60.489c4.312 30.192 16.225 57.966 33.75 81.304l-42.823 42.823c-7.603 7.601-7.602 19.976-.001 27.577l8.132 8.132c7.605 7.603 19.974 7.602 27.578 0l42.823-42.823c23.338 17.524 51.111 29.438 81.304 33.749v60.489c0 10.752 8.748 19.5 19.5 19.5h11.5c10.752 0 19.5-8.748 19.5-19.5v-60.489c30.192-4.311 57.966-16.225 81.304-33.749l42.823 42.823c7.604 7.602 19.976 7.601 27.577 0l8.131-8.132c7.603-7.601 7.602-19.976.001-27.577l-42.823-42.824c17.524-23.338 29.438-51.111 33.749-81.303h60.489c10.752 0 19.5-8.748 19.5-19.5v-11.5c0-10.751-8.748-19.499-19.5-19.499zm-76.517-149.23c1.736-1.737 4.62-1.744 6.363 0l8.131 8.131c1.726 1.725 1.726 4.639 0 6.364l-41.675 41.675c-4.561-5.133-9.396-9.975-14.478-14.513zm-170.234-62.022c0-2.439 2.061-4.5 4.5-4.5h11.5c2.439 0 4.5 2.061 4.5 4.5v58.982c-6.885-.393-13.919-.377-20.5 0zm-164.23 76.518c-1.726-1.725-1.726-4.639-.001-6.364l8.133-8.131c1.725-1.725 4.639-1.725 6.363 0l41.716 41.715c-5.102 4.548-9.948 9.395-14.496 14.495zm-3.04 170.234h-58.982c-2.439 0-4.5-2.061-4.5-4.5v-11.5c0-2.439 2.061-4.5 4.5-4.5h58.982c-.383 6.859-.396 13.396 0 20.5zm17.536 164.228c-1.725 1.727-4.639 1.727-6.363 0l-8.133-8.132c-1.739-1.739-1.739-4.624.001-6.362l41.715-41.716c4.549 5.102 9.395 9.947 14.496 14.495zm170.234 62.023c0 2.439-2.061 4.5-4.5 4.5h-11.5c-2.439 0-4.5-2.061-4.5-4.5v-58.982c6.664.379 13.539.399 20.5 0zm164.229-76.517c1.739 1.739 1.739 4.624-.001 6.362l-8.132 8.133c-1.739 1.739-4.624 1.739-6.362-.001l-41.716-41.715c5.102-4.549 9.947-9.395 14.495-14.495zm66.522-154.234c0 2.439-2.061 4.5-4.5 4.5h-58.982c.359-6.429.417-13.22 0-20.5h58.982c2.439 0 4.5 2.061 4.5 4.5z"/><path d="m243.413 256.002c0 4.143 3.357 7.5 7.5 7.5h10.177c4.143 0 7.5-3.357 7.5-7.5s-3.357-7.5-7.5-7.5h-10.177c-4.142 0-7.5 3.357-7.5 7.5z"/><path d="m302.294 256.002c0-17.543-9.733-33.371-25.402-41.309-3.697-1.874-8.208-.394-10.08 3.301s-.394 8.208 3.301 10.08c10.599 5.368 17.182 16.07 17.182 27.928 0 17.255-14.037 31.292-31.292 31.292s-31.293-14.037-31.293-31.292c0-11.858 6.584-22.56 17.182-27.928 3.695-1.871 5.174-6.385 3.302-10.079-1.871-3.696-6.386-5.176-10.079-3.302-15.67 7.938-25.404 23.766-25.404 41.309 0 25.525 20.767 46.292 46.293 46.292 25.523 0 46.29-20.767 46.29-46.292z"/><path d="m274.529 115.715c-125.647-16.505-206.682 127.231-130.949 226.21 77.709 101.523 236.657 55.218 252.708-67.391 10.323-78.588-45.509-148.815-121.759-158.819zm86.943 70.525c8.825 13.297 15.208 28.348 18.496 44.512h-50.883c-1.019-2.941-2.197-5.806-3.55-8.574zm-9.113-12.1-34.917 34.917c-4.169-5.446-9.05-10.327-14.496-14.496l34.917-34.916c5.213 4.434 10.061 9.283 14.496 14.495zm-71.107-42.105c16.164 3.287 31.214 9.671 44.511 18.496l-35.938 35.936c-2.768-1.352-5.633-2.531-8.574-3.549v-50.883zm-35.5-2.117c6.67-.536 13.709-.546 20.5 0v49.423c-6.587-.876-13.67-.909-20.5 0zm-15 2.117v50.883c-2.94 1.019-5.806 2.198-8.574 3.55l-35.937-35.937c13.297-8.825 28.347-15.208 44.511-18.496zm-56.612 27.609 34.917 34.916c-5.445 4.169-10.326 9.05-14.495 14.496l-34.917-34.916c4.434-5.212 9.283-10.061 14.495-14.496zm-23.608 26.597 35.936 35.936c-1.352 2.769-2.531 5.634-3.55 8.575h-50.882c3.287-16.164 9.671-31.214 18.496-44.511zm-20.613 59.511h49.423c-.859 6.47-.928 13.506 0 20.5h-49.423c-.579-6.556-.503-14.81 0-20.5zm20.612 80.011c-8.824-13.297-15.208-28.347-18.495-44.511h50.882c1.019 2.94 2.198 5.806 3.55 8.574zm9.114 12.101 34.917-34.918c4.169 5.446 9.05 10.327 14.495 14.496l-34.917 34.917c-5.212-4.435-10.06-9.283-14.495-14.495zm71.107 42.104c-16.164-3.287-31.214-9.671-44.511-18.496l35.937-35.937c2.768 1.352 5.634 2.531 8.574 3.55zm35.5 2.117c-6.775.546-13.84.537-20.5 0v-49.424c6.56.873 13.621.915 20.5 0zm-12.696-63.807c-32.188-1.246-58.359-27.085-59.82-59.433-1.572-34.889 25.994-64.61 61.293-65.157 37.077-.57 66.702 31.284 63 68.519-.018.18-.041.359-.06.538-3.49 32.161-31.33 56.816-64.413 55.533zm27.696 61.69v-50.883c2.94-1.019 5.806-2.197 8.574-3.549l35.938 35.937c-13.298 8.824-28.348 15.208-44.512 18.495zm56.612-27.609-34.917-34.917c5.446-4.169 10.327-9.05 14.496-14.496l34.917 34.918c-4.436 5.212-9.284 10.06-14.496 14.495zm23.608-26.596-35.937-35.937c1.352-2.768 2.531-5.634 3.549-8.574h50.883c-3.286 16.164-9.67 31.214-18.495 44.511zm20.613-59.511h-49.424c.917-6.909.867-13.984 0-20.5h49.424c.597 6.681.493 14.97 0 20.5z"/></g></g></svg>
